<svg width="32" height="32" viewBox="0 0 32 32" fill="none" xmlns="http://www.w3.org/2000/svg">
<path d="M26.2847 21.1165V24.2133C26.2858 24.5008 26.2268 24.7854 26.1114 25.0488C25.996 25.3122 25.8268 25.5487 25.6145 25.743C25.4022 25.9374 25.1516 26.0854 24.8788 26.1775C24.6059 26.2696 24.3167 26.3038 24.0298 26.2779C20.847 25.9327 17.7897 24.8473 15.1036 23.1088C12.6045 21.5239 10.4857 19.4093 8.89764 16.9151C7.14961 14.2221 6.06177 11.1561 5.72226 7.96531C5.69642 7.67985 5.73041 7.39215 5.82208 7.12052C5.91374 6.84889 6.06108 6.59928 6.2547 6.3876C6.44832 6.17591 6.68398 6.00678 6.94669 5.89097C7.20939 5.77516 7.49338 5.71521 7.78057 5.71494H10.8835C11.3855 5.71001 11.8721 5.88742 12.2527 6.21408C12.6333 6.54075 12.8819 6.9944 12.9522 7.49046C13.0832 8.48151 13.3261 9.4546 13.6762 10.3912C13.8154 10.7606 13.8455 11.1622 13.763 11.5482C13.6805 11.9343 13.4889 12.2886 13.2108 12.5693L11.8972 13.8803C13.3696 16.4646 15.5137 18.6044 18.1031 20.0739L19.4167 18.7629C19.698 18.4854 20.053 18.2941 20.4398 18.2118C20.8266 18.1295 21.229 18.1595 21.5992 18.2984C22.5376 18.6479 23.5126 18.8903 24.5056 19.021C25.0081 19.0917 25.4669 19.3443 25.7949 19.7307C26.123 20.117 26.2972 20.6103 26.2847 21.1165Z" fill="#342C77" stroke="#B9B5E3" stroke-linecap="round" stroke-linejoin="round"/>
</svg>
