<svg width="712" height="984" viewBox="0 0 712 984" fill="none" xmlns="http://www.w3.org/2000/svg">
<path opacity="0.2" fill-rule="evenodd" clip-rule="evenodd" d="M107 984C378.724 984 599 763.724 599 492C599 220.276 378.724 0 107 0C70.2532 0 34.4474 4.02855 0 11.6681L0 972.332C34.4474 979.971 70.2532 984 107 984Z" fill="#B9B5E3"/>
<path d="M63.5244 453.082L109.562 469.387L97.9568 476.122L65.7744 494.506L55.4219 500.444L63.5244 453.082Z" fill="#E2E8F0"/>
<path d="M263.995 705.814L292.674 692.813L230.246 586.44L202.122 611.46L152.624 524.681L125.397 543.122L81.0966 463.25L64.8345 470.128L118.918 577.811L149.634 551.225L196.255 648.071L224.123 617.854L263.995 705.814Z" fill="#E2E8F0"/>
<path d="M678.123 644.042L643.534 642.789L649.443 650.251L665.848 670.742L671.117 677.364L678.123 644.042Z" fill="#F1F4F9"/>
<path d="M480.144 758.333L464.637 742.298L533.501 688.471L545.52 712.28L600.743 668.008L613.886 687.246L663.897 646.164L672.825 654.936L609.116 711.81L595.801 686.264L539.824 737.941L529.343 710.771L480.144 758.333Z" fill="#F1F4F9"/>
<path d="M612.377 336.102L566.168 360.708L579.554 366.006L616.578 380.359L628.482 385.002L612.377 336.102Z" fill="#CBD5E0"/>
<path d="M440.116 635.869L407.648 626.655L456.89 503.978L490.682 526.007L529.329 426.171L561.113 441.379L595.36 349.688L613.701 354.372L573.502 477.121L536.72 453.825L502.715 563.886L468.368 536.288L440.116 635.869Z" fill="#CBD5E0"/>
<path d="M679.846 810.237C679.846 810.437 533.459 810.608 352.924 810.608C172.332 810.608 25.9736 810.437 25.9736 810.237C25.9736 810.038 172.332 809.867 352.924 809.867C533.473 809.867 679.846 810.038 679.846 810.237Z" fill="#323A43"/>
<path d="M406.413 809.902H441.543V752.415H406.413V809.902Z" fill="#8179CD"/>
<path d="M548.05 809.902H583.18V712.373H548.05V809.902Z" fill="#8179CD"/>
<path d="M618.883 809.898H654.013V774.469H618.883V809.898Z" fill="#8179CD"/>
<path d="M477.232 809.895H512.362V725.095H477.232V809.895Z" fill="#8179CD"/>
<path d="M335.58 809.902H370.71V704.242H335.58V809.902Z" fill="#8179CD"/>
<path d="M264.761 809.891H299.891V673.97H264.761V809.891Z" fill="#8179CD"/>
<path d="M193.942 809.902H229.072L229.072 640.29H193.942L193.942 809.902Z" fill="#8179CD"/>
<path d="M123.109 809.898H158.239L158.239 594.59H123.109L123.109 809.898Z" fill="#8179CD"/>
<path d="M52.2903 809.895H87.4204L87.4204 526.86H52.2903L52.2903 809.895Z" fill="#8179CD"/>
<path d="M592.598 771.802C581.419 749.944 557.738 735.077 533.188 734.479C548.083 718.004 551.017 692.514 542.43 672.037C533.843 651.56 514.933 636.294 493.729 629.701C472.526 623.108 449.3 624.66 428.168 631.481C430.618 615.461 414.612 599.484 398.592 601.976C404.857 597.647 406.993 588.32 403.234 581.698C399.489 575.077 390.39 572.115 383.455 575.247L384.394 457.867H361.269H337.744H314.618L315.558 575.247C308.623 572.1 299.538 575.062 295.779 581.698C292.034 588.32 294.17 597.647 300.421 601.976C284.415 599.484 268.395 615.476 270.845 631.481C249.713 624.66 226.487 623.122 205.284 629.701C184.08 636.294 165.17 651.56 156.583 672.037C147.996 692.514 150.93 718.004 165.825 734.479C141.289 735.063 117.594 749.944 106.415 771.802C99.922 784.504 99.324 803.258 111.941 809.894H337.744H361.269H587.072C599.703 803.258 599.105 784.504 592.598 771.802Z" fill="#E2E8F0"/>
<path d="M111.955 809.893C111.955 809.893 111.385 809.552 110.26 808.868C109.164 808.17 107.626 806.889 106.045 804.867C104.493 802.802 103.098 799.84 102.357 796.109C101.588 792.378 101.617 787.907 102.499 783.022C103.368 778.124 105.376 772.855 108.566 767.672C111.713 762.46 115.914 757.234 121.254 752.435C126.594 747.679 133.002 743.222 140.549 740.003C141.489 739.605 142.443 739.206 143.397 738.793C144.379 738.451 145.362 738.11 146.373 737.754C147.355 737.383 148.381 737.084 149.42 736.814C150.46 736.543 151.485 736.216 152.553 735.974C156.797 735.005 161.239 734.436 165.839 734.25L165.682 734.621C161.339 729.779 157.793 723.884 155.316 717.319C152.895 710.74 151.599 703.464 151.585 695.959C151.642 688.455 152.909 680.694 155.842 673.261C157.295 669.544 159.089 665.899 161.296 662.452C163.461 658.978 165.953 655.631 168.787 652.527C180.036 640.024 196.099 630.669 214.226 627.123C223.269 625.272 232.753 624.802 242.308 625.471C251.863 626.212 261.503 628.134 270.973 631.153L270.546 631.523C269.976 627.735 270.418 623.762 271.77 620.06C273.109 616.343 275.302 612.897 278.107 609.978C280.912 607.059 284.344 604.667 288.203 603.129C292.048 601.591 296.334 600.964 300.507 601.619L300.25 602.246C294.198 598.059 291.692 589.031 295.252 581.996C298.841 575.005 308.282 571.601 315.729 574.919L315.231 575.247C314.932 537.867 314.604 498.45 314.277 457.866V457.496H314.647C325.711 457.496 337.573 457.496 349.506 457.496C361.24 457.496 372.889 457.496 384.423 457.496H384.793V457.866C384.466 498.351 384.152 537.639 383.839 575.247L383.341 574.919C390.646 571.658 399.93 574.862 403.675 581.726C407.378 588.632 405.099 597.874 398.82 602.246L398.563 601.619C402.693 600.978 406.922 601.576 410.738 603.072C414.555 604.567 417.972 606.916 420.792 609.793C423.611 612.669 425.847 616.101 427.228 619.832C428.624 623.563 429.108 627.621 428.51 631.523L428.083 631.153C437.538 628.134 447.179 626.212 456.734 625.471C466.289 624.802 475.758 625.258 484.801 627.109C502.914 630.64 518.962 639.982 530.212 652.442C533.06 655.532 535.538 658.878 537.717 662.353C539.924 665.799 541.718 669.444 543.185 673.147C544.708 676.835 545.648 680.68 546.431 684.467C547.115 688.284 547.457 692.086 547.485 695.845C547.499 703.35 546.189 710.626 543.783 717.234C541.319 723.827 537.759 729.736 533.388 734.606L533.231 734.236C537.83 734.421 542.288 734.991 546.531 735.959C547.599 736.201 548.624 736.515 549.664 736.799C550.703 737.07 551.729 737.369 552.711 737.739C553.708 738.081 554.705 738.437 555.687 738.779C556.642 739.192 557.596 739.59 558.55 739.989C566.111 743.207 572.505 747.679 577.845 752.435C583.171 757.234 587.386 762.46 590.518 767.672C593.694 772.855 595.716 778.138 596.57 783.022C597.468 787.907 597.468 792.378 596.699 796.095C595.958 799.826 594.548 802.773 593.01 804.838C591.416 806.86 589.892 808.128 588.795 808.84C587.685 809.523 587.101 809.865 587.101 809.865C587.101 809.865 587.656 809.495 588.753 808.797C589.835 808.085 591.344 806.803 592.897 804.781C594.406 802.716 595.787 799.783 596.499 796.066C597.24 792.364 597.211 787.921 596.314 783.079C595.446 778.209 593.438 772.998 590.248 767.828C587.101 762.645 582.9 757.447 577.589 752.691C572.263 747.964 565.883 743.535 558.365 740.345C557.425 739.946 556.471 739.548 555.517 739.149C554.534 738.807 553.551 738.466 552.555 738.124C551.572 737.754 550.547 737.469 549.522 737.198C548.496 736.928 547.457 736.614 546.403 736.372C542.188 735.418 537.759 734.849 533.188 734.678L532.704 734.663L533.017 734.307C537.332 729.48 540.849 723.599 543.284 717.077C545.662 710.527 546.944 703.307 546.93 695.859C546.901 692.129 546.545 688.355 545.862 684.567C545.093 680.808 544.153 677.006 542.629 673.346C541.163 669.672 539.397 666.055 537.204 662.638C535.054 659.191 532.576 655.874 529.756 652.812C518.578 640.452 502.643 631.196 484.644 627.707C475.673 625.87 466.26 625.428 456.762 626.098C447.264 626.838 437.681 628.761 428.268 631.765L427.755 631.936L427.841 631.409C428.41 627.621 427.94 623.691 426.573 620.06C425.221 616.414 423.042 613.068 420.279 610.263C417.517 607.458 414.17 605.165 410.454 603.712C406.751 602.26 402.636 601.676 398.634 602.303L397.139 602.53L398.378 601.662C404.359 597.518 406.552 588.59 403.02 582.053C399.475 575.531 390.518 572.441 383.597 575.56L383.084 575.788V575.232C383.383 537.639 383.682 498.351 384.01 457.852L384.38 458.222C372.846 458.222 361.198 458.222 349.464 458.222C337.516 458.222 325.669 458.222 314.604 458.222L314.974 457.852C315.288 498.436 315.601 537.838 315.9 575.232V575.788L315.387 575.56C308.339 572.384 299.225 575.674 295.836 582.31C292.418 588.974 294.853 597.703 300.606 601.662L301.859 602.53L300.364 602.303C296.32 601.676 292.162 602.274 288.417 603.769C284.672 605.265 281.311 607.6 278.563 610.448C273.052 616.101 270.033 624.033 271.172 631.423L271.258 631.95L270.745 631.779C261.332 628.761 251.749 626.852 242.237 626.112C232.738 625.443 223.297 625.898 214.326 627.721C196.313 631.224 180.364 640.509 169.185 652.897C166.366 655.973 163.888 659.291 161.738 662.737C159.545 666.169 157.765 669.786 156.327 673.46C153.407 680.822 152.14 688.526 152.069 695.959C152.069 703.407 153.35 710.612 155.743 717.148C158.178 723.67 161.695 729.509 165.981 734.322L166.295 734.678L165.81 734.692C161.254 734.863 156.825 735.418 152.61 736.386C151.556 736.614 150.531 736.942 149.506 737.212C148.48 737.483 147.455 737.768 146.473 738.138C145.476 738.48 144.493 738.822 143.525 739.163C142.571 739.562 141.631 739.961 140.691 740.359C133.172 743.549 126.793 747.964 121.467 752.691C116.156 757.447 111.955 762.645 108.794 767.814C105.604 772.969 103.582 778.195 102.713 783.065C101.802 787.921 101.773 792.364 102.514 796.066C103.226 799.783 104.607 802.731 106.116 804.795C107.683 806.832 109.192 808.099 110.274 808.825C111.399 809.523 111.955 809.893 111.955 809.893Z" fill="#323A43"/>
<path d="M258.997 296.97L346.872 194.684L431.315 296.97H398.364V463.805H296.064V297.155L258.997 296.97Z" fill="#8179CD"/>
<path d="M676.372 463.191L614.157 482.316L629.266 491.842L671.117 517.887L684.574 526.303L676.372 463.191Z" fill="#8179CD"/>
<path d="M395.616 786.966L358.122 768.227L447.051 630.782L483.163 665.399L553.794 553.188L589.052 579.062L652.406 475.723L673.695 485.676L595.802 625.314L556.343 588.475L488.959 714.171L453.502 672.69L395.616 786.966Z" fill="#8179CD"/>
<g opacity="0.3">
<path d="M432.312 751.538C423.782 745.885 412.746 745.273 402.707 747.252C399.389 747.907 395.715 748.761 392.81 747.024C389.934 745.301 388.951 741.698 387.798 738.551C381.931 722.432 365.84 711.381 348.908 708.562C331.991 705.742 318.392 707.095 303.056 714.785C293.899 719.37 284.444 725.778 276.413 737.754C274.106 741.186 269.933 748.178 269.933 748.178C266.872 750.442 262.813 750.584 259.054 751.196C243.532 753.717 230.147 766.334 226.701 781.67L441.81 778.181C445.84 768.769 440.842 757.192 432.312 751.538Z" fill="#323A43"/>
</g>
<path d="M214.91 795.709C221.631 771.9 248.146 755.552 272.44 760.237C277.566 734.321 302.415 713.744 328.83 713.544C355.245 713.345 380.407 733.523 385.933 759.355C400.529 755.994 416.235 753.488 430.162 758.984C444.103 764.481 454.769 780.814 449.001 794.641" fill="#E2E8F0"/>
<path d="M449.002 794.627C448.987 794.627 449.03 794.485 449.115 794.214C449.201 793.93 449.329 793.531 449.486 793.033C449.657 792.52 449.884 791.879 449.998 791.067C450.126 790.27 450.383 789.373 450.383 788.305C450.753 784.161 449.756 777.682 445.199 771.245C442.95 768.056 439.888 764.908 435.972 762.317C432.099 759.654 427.229 757.931 421.917 756.92C416.591 755.952 410.796 755.823 404.758 756.393C398.72 756.948 392.454 758.173 385.99 759.654L385.662 759.725L385.591 759.398C383.284 749.159 377.745 738.807 369.144 730.633C360.614 722.473 349.222 716.265 336.591 714.456C328.73 713.36 320.742 713.972 313.465 716.307C306.174 718.586 299.524 722.231 293.842 726.717C288.161 731.217 283.433 736.542 279.887 742.295C276.327 748.048 273.949 754.186 272.725 760.252L272.668 760.551L272.369 760.494C266.943 759.469 261.589 759.54 256.633 760.295C254.141 760.594 251.778 761.292 249.485 761.89C248.36 762.288 247.249 762.673 246.167 763.043C245.07 763.385 244.059 763.954 243.034 764.382C240.955 765.222 239.132 766.404 237.281 767.386C236.413 767.97 235.558 768.54 234.718 769.095C234.305 769.38 233.892 769.65 233.479 769.935C233.08 770.234 232.71 770.548 232.326 770.847C231.571 771.459 230.83 772.043 230.104 772.627C229.392 773.21 228.766 773.88 228.111 774.478C227.484 775.104 226.829 775.674 226.259 776.286C225.704 776.927 225.163 777.539 224.636 778.152C220.464 783.036 218.128 787.579 216.761 790.711C216.064 792.278 215.722 793.559 215.394 794.385C215.095 795.225 214.91 795.638 214.91 795.638C214.91 795.638 215.38 793.858 216.576 790.64C217.901 787.465 220.193 782.879 224.351 777.924C224.878 777.312 225.419 776.685 225.975 776.044C226.544 775.418 227.199 774.834 227.826 774.207C228.481 773.595 229.107 772.926 229.819 772.328C230.546 771.744 231.286 771.131 232.041 770.519C232.425 770.22 232.796 769.893 233.194 769.593C233.607 769.309 234.02 769.024 234.447 768.739C235.288 768.169 236.142 767.586 237.011 767.002C238.862 766.005 240.699 764.795 242.792 763.94C243.832 763.499 244.843 762.929 245.953 762.573C247.05 762.189 248.175 761.79 249.3 761.391C251.621 760.765 253.999 760.053 256.519 759.739C261.532 758.956 266.957 758.871 272.468 759.896L272.098 760.138C273.308 754.001 275.715 747.778 279.303 741.954C282.878 736.129 287.662 730.733 293.387 726.176C299.126 721.633 305.847 717.931 313.237 715.61C320.599 713.232 328.702 712.605 336.676 713.716C349.478 715.553 361.013 721.847 369.614 730.106C378.3 738.379 383.896 748.874 386.217 759.241L385.819 758.985C392.298 757.504 398.592 756.293 404.687 755.752C410.767 755.197 416.62 755.339 422.002 756.336C427.357 757.39 432.298 759.156 436.214 761.875C440.158 764.524 443.249 767.728 445.498 770.975C450.055 777.511 450.995 784.09 450.568 788.276C450.539 789.344 450.283 790.256 450.126 791.053C449.998 791.851 449.756 792.491 449.557 793.018C449.372 793.517 449.229 793.901 449.13 794.186C449.073 794.499 449.016 794.627 449.002 794.627Z" fill="#323A43"/>
<path d="M315.074 429.142C315.986 486.344 270.418 533.621 213.472 534.532C156.54 535.458 109.477 489.662 108.566 432.474C107.654 375.272 153.222 327.995 210.154 327.084C267.085 326.158 314.163 371.954 315.074 429.142ZM162.45 431.606C162.891 458.946 185.39 480.848 212.617 480.406C239.844 479.965 261.631 457.366 261.19 430.011C260.749 402.67 238.249 380.769 211.022 381.21C183.796 381.652 162.008 404.265 162.45 431.606Z" fill="#CBD5E0"/>
<path d="M315.074 429.142C315.985 486.344 270.417 533.621 213.486 534.532L212.617 480.406C239.844 479.965 261.631 457.366 261.19 430.011C260.749 402.67 238.249 380.769 211.022 381.21L210.154 327.084C267.085 326.158 314.149 371.954 315.074 429.142Z" fill="#4A5568"/>
<path d="M212.774 535.259L211.891 479.709L212.603 479.695C239.431 479.268 260.905 456.982 260.478 430.026C260.264 416.996 255.01 404.807 245.654 395.707C236.313 386.608 224.038 381.738 211.037 381.923L210.325 381.937L209.442 326.387L210.154 326.373C237.893 325.931 264.152 336.384 284.131 355.807C304.109 375.244 315.345 401.275 315.8 429.129C316.726 486.715 270.831 534.32 213.5 535.245L212.774 535.259ZM213.329 481.105L214.17 533.821C270.375 532.525 315.259 485.733 314.348 429.157C313.907 401.688 302.814 375.999 283.12 356.832C263.582 337.836 237.95 327.54 210.88 327.783L211.72 380.499C224.778 380.485 237.196 385.497 246.637 394.682C256.263 404.038 261.674 416.583 261.888 429.997C262.343 457.509 240.613 480.279 213.329 481.105Z" fill="#4A5568"/>
<path d="M222.742 542.864C156.127 543.932 102.998 492.241 101.93 425.327L164.97 424.316C165.483 456.314 189.833 476.449 221.674 475.936L222.742 542.864Z" fill="#3D348B"/>
<path d="M138.142 426.424C138.541 426.695 132.589 436.05 124.828 447.286C117.081 458.535 110.474 467.435 110.061 467.15C109.662 466.88 115.615 457.538 123.375 446.275C131.136 435.039 137.743 426.153 138.142 426.424Z" fill="#323A43"/>
<path d="M165.554 431.692C165.953 431.962 157.138 445.447 145.874 461.809C134.596 478.171 125.141 491.215 124.742 490.93C124.343 490.659 133.158 477.174 144.436 460.812C155.686 444.465 165.155 431.421 165.554 431.692Z" fill="#323A43"/>
<path d="M178.883 459.732C179.282 460.002 171.35 472.22 161.168 487.001C150.972 501.797 142.4 513.545 142.001 513.274C141.602 513.003 149.534 500.786 159.73 486.004C169.912 471.223 178.484 459.447 178.883 459.732Z" fill="#323A43"/>
<path d="M202.094 475.239C202.492 475.51 194.561 487.728 184.379 502.509C174.183 517.304 165.611 529.052 165.212 528.782C164.813 528.511 172.745 516.293 182.941 501.512C193.108 486.717 201.695 474.955 202.094 475.239Z" fill="#323A43"/>
<path d="M221.973 494.904C222.371 495.175 215.892 505.285 207.491 517.474C199.089 529.664 191.955 539.319 191.556 539.048C191.157 538.777 197.637 528.667 206.038 516.478C214.44 504.288 221.574 494.633 221.973 494.904Z" fill="#323A43"/>
<path d="M550.747 231.637C550.747 231.637 556.97 217.312 557.269 215.062C557.568 212.826 556.941 207.842 555.332 206.475C553.723 205.108 551.644 204.837 550.206 205.777C550.206 205.777 549.978 202.644 546.802 202.046C543.627 201.448 543.712 204.396 543.712 204.396C543.712 204.396 543.855 202.217 541.548 201.633C540.423 201.349 539.127 201.989 539.127 201.989C539.127 201.989 536.094 199.284 534.057 200.964C532.035 202.644 534.371 228.746 534.371 228.746L550.747 231.637Z" fill="#B9B5E3"/>
<path d="M533.957 225.755C533.957 225.755 528.404 216.186 528.432 213.58C528.461 210.974 531.579 205.064 533.317 204.324C535.054 203.583 541.918 202.031 541.918 202.031C541.918 202.031 544.723 204.666 540.579 207.272L535.794 209.963C535.794 209.963 543.427 212.512 543.185 220.315" fill="#B9B5E3"/>
<path d="M543.185 220.329C543.057 220.343 543.228 218.948 542.473 216.726C542.06 215.644 541.362 214.376 540.237 213.209C539.113 212.055 537.546 210.973 535.695 210.275L535.068 210.033L535.652 209.706C537.162 208.837 538.785 207.912 540.508 206.929C541.305 206.431 542.06 205.733 542.373 204.878C542.701 204.024 542.359 202.999 541.69 202.329L542.017 202.415C540.836 202.7 539.611 202.984 538.344 203.284C537.361 203.526 536.407 203.768 535.453 204.038C534.983 204.166 534.513 204.309 534.072 204.451C533.844 204.522 533.616 204.608 533.431 204.693C533.26 204.779 533.103 204.907 532.932 205.049C531.651 206.302 530.754 207.968 530.013 209.506C529.657 210.29 529.33 211.073 529.088 211.842C528.874 212.611 528.66 213.394 528.789 214.077C529.088 215.53 529.7 216.883 530.213 218.079C531.295 220.485 532.292 222.379 532.961 223.704C533.63 225.028 534 225.754 533.958 225.783C533.915 225.811 533.459 225.128 532.705 223.846C531.95 222.564 530.896 220.699 529.743 218.307C529.187 217.096 528.546 215.786 528.19 214.191C528.034 213.323 528.247 212.483 528.475 211.671C528.703 210.845 529.031 210.048 529.401 209.236C530.17 207.627 531.01 205.961 532.448 204.522C532.633 204.352 532.847 204.181 533.117 204.052C533.36 203.939 533.587 203.853 533.829 203.782C534.299 203.625 534.769 203.483 535.253 203.34C536.208 203.07 537.176 202.828 538.158 202.572C539.426 202.272 540.665 201.973 541.847 201.703L542.046 201.66L542.188 201.803C543.043 202.657 543.47 203.967 543.057 205.12C542.63 206.245 541.747 206.972 540.878 207.527C539.141 208.495 537.489 209.407 535.965 210.261L535.909 209.692C537.888 210.475 539.469 211.628 540.622 212.867C541.775 214.12 542.459 215.459 542.843 216.612C543 217.196 543.157 217.709 543.185 218.179C543.256 218.648 543.299 219.033 543.271 219.36C543.242 219.987 543.214 220.329 543.185 220.329Z" fill="#8179CD"/>
<path d="M543.142 204.535C542.373 207.312 542.089 210.217 542.316 213.079C542.388 214.047 542.559 215.087 543.242 215.799C543.883 216.468 544.894 216.71 545.82 216.539C546.731 216.369 547.543 215.842 548.198 215.172" fill="#B9B5E3"/>
<path d="M548.197 215.174C548.254 215.188 547.742 216.156 546.147 216.726C545.364 216.982 544.239 216.997 543.285 216.299C542.288 215.558 542.017 214.22 541.946 213.052C541.547 208.211 542.986 204.451 543.142 204.537C543.37 204.579 542.302 208.324 542.687 212.995C542.758 214.149 543 215.217 543.712 215.772C544.41 216.327 545.335 216.399 546.019 216.228C547.443 215.857 548.126 215.06 548.197 215.174Z" fill="#8179CD"/>
<path d="M537.034 209.695C536.549 210.934 536.72 211.49 536.806 212.814C536.877 214.152 537.689 215.534 538.985 215.847C540.067 216.103 541.462 214.665 542.103 213.156" fill="#B9B5E3"/>
<path d="M542.103 213.154C542.188 213.182 542.06 213.866 541.434 214.763C541.106 215.204 540.679 215.717 539.953 216.059C539.611 216.23 539.055 216.287 538.643 216.116C538.23 215.988 537.845 215.731 537.532 215.404C536.891 214.763 536.592 213.937 536.492 213.197C536.435 212.442 536.421 211.887 536.435 211.317C536.507 210.192 536.962 209.637 537.019 209.665C537.133 209.708 536.891 210.334 536.962 211.317C537.033 211.929 537.105 212.527 537.176 213.097C537.29 213.709 537.575 214.379 538.059 214.877C538.301 215.119 538.586 215.318 538.885 215.418C539.184 215.532 539.397 215.518 539.696 215.418C540.237 215.204 540.693 214.777 541.021 214.421C541.704 213.695 541.989 213.111 542.103 213.154Z" fill="#8179CD"/>
<path d="M550.733 205.949C549.18 207.644 548.027 209.709 547.415 211.93C547.101 213.098 546.987 214.522 547.885 215.333C548.824 216.188 550.334 215.874 551.416 215.205C553.039 214.194 554.221 212.471 554.577 210.591" fill="#B9B5E3"/>
<path d="M554.563 210.576C554.634 210.562 554.663 211.801 553.652 213.41C553.139 214.193 552.37 215.048 551.259 215.674C550.69 215.973 550.035 216.201 549.294 216.201C548.568 216.216 547.714 215.874 547.272 215.162C546.816 214.45 546.788 213.652 546.859 212.969C546.93 212.271 547.13 211.644 547.329 211.075C547.742 209.921 548.255 208.939 548.767 208.156C549.793 206.604 550.69 205.892 550.747 205.948C550.832 206.034 550.077 206.874 549.223 208.426C548.796 209.209 548.34 210.164 547.984 211.288C547.813 211.844 547.642 212.442 547.585 213.04C547.528 213.638 547.585 214.279 547.899 214.749C548.54 215.76 550.006 215.56 550.96 215.062C551.957 214.549 552.726 213.795 553.239 213.097C554.264 211.687 554.435 210.534 554.563 210.576Z" fill="#8179CD"/>
<path d="M473.438 323.387C473.438 323.387 481.156 315.056 484.203 313.191C487.25 311.325 507.329 287.388 509.45 281.094C511.572 274.8 531.266 224.234 530.867 224.917C530.526 225.487 555.873 230.271 555.873 230.271C555.873 230.271 537.005 288.584 534.698 295.263C530.54 307.352 509.935 331.831 498.187 346.512C493.188 352.764 486.268 372.785 486.268 372.785L473.438 323.387Z" fill="#323A43"/>
<path d="M491.835 354.784C491.736 354.799 491.422 353.061 491.109 350.213C490.782 347.38 490.483 343.435 490.411 339.078C490.34 334.72 490.497 330.761 490.725 327.913C490.952 325.065 491.209 323.314 491.294 323.328C491.408 323.342 491.337 325.094 491.237 327.942C491.152 330.79 491.066 334.72 491.138 339.063C491.209 343.407 491.422 347.337 491.622 350.171C491.821 353.004 491.949 354.77 491.835 354.784Z" fill="#4A5568"/>
<path d="M364.587 652.001L353.736 674.116L352.355 679.527C352.355 679.527 359.589 712.393 355.075 715.626L322.778 663.493L331.094 658.253L341.433 636.152L364.587 652.001Z" fill="#4A5568"/>
<path d="M322.778 663.494L326.865 661.145L356.299 711.996C356.299 711.996 356.783 714.915 355.075 715.613L322.778 663.494Z" fill="#323A43"/>
<path d="M353.138 680.212C352.896 680.354 351.999 679.144 350.447 678.375C348.909 677.563 347.47 677.563 347.413 677.278C347.314 677.008 348.994 676.495 350.859 677.463C352.725 678.417 353.38 680.126 353.138 680.212Z" fill="#323A43"/>
<path d="M354.377 687.017C354.178 687.216 353.081 686.376 351.529 686.148C349.977 685.877 348.738 686.333 348.596 686.077C348.411 685.863 349.706 684.809 351.643 685.137C353.58 685.436 354.605 686.86 354.377 687.017Z" fill="#323A43"/>
<path d="M350.105 693.98C349.906 693.781 350.888 692.67 352.626 692.514C354.349 692.328 355.616 693.211 355.474 693.439C355.36 693.71 354.178 693.368 352.768 693.539C351.344 693.653 350.29 694.208 350.105 693.98Z" fill="#323A43"/>
<path d="M475.217 489.31C474.149 491.83 419.667 575.234 408.489 584.504C397.31 593.774 359.161 669.844 359.161 669.844C359.161 669.844 327.99 654.721 327.292 656.373C326.594 658.011 349.151 602.674 362.607 579.947C376.064 557.22 382.344 548.434 382.344 548.434L409.115 477.063C409.115 477.063 409.671 453.553 413.117 444.397C416.563 435.255 426.63 427.309 426.63 427.309L475.217 489.31Z" fill="#323A43"/>
<path d="M426.147 590.1L397.183 592.179C397.183 592.179 389.735 623.934 384.424 624.86L378.059 565.764L423.043 560.566L426.147 590.1Z" fill="#4A5568"/>
<path d="M397.638 573.64C397.225 572.53 395.915 571.875 394.847 572.259C393.779 572.644 393.152 574.025 393.551 575.15C393.95 576.275 395.488 577.101 396.513 576.602C397.524 576.09 398.193 574.424 397.538 573.441" fill="#CBD5E0"/>
<path d="M378.044 565.764L382.601 565.422L387.001 622.197C387.001 622.197 386.203 624.945 384.409 624.845L378.044 565.764Z" fill="#323A43"/>
<path d="M397.567 593.104C397.297 593.118 397.012 591.694 395.987 590.369C394.99 589.017 393.722 588.419 393.808 588.134C393.836 587.863 395.517 588.105 396.741 589.743C397.966 591.352 397.824 593.132 397.567 593.104Z" fill="#323A43"/>
<path d="M395.801 599.571C395.545 599.671 394.947 598.475 393.68 597.62C392.441 596.723 391.159 596.623 391.145 596.324C391.074 596.054 392.654 595.684 394.206 596.78C395.759 597.848 396.058 599.528 395.801 599.571Z" fill="#323A43"/>
<path d="M389.151 603.857C389.065 603.6 390.39 603.045 391.97 603.629C393.551 604.198 394.292 605.494 394.078 605.637C393.864 605.822 392.967 605.038 391.671 604.583C390.376 604.099 389.208 604.141 389.151 603.857Z" fill="#323A43"/>
<path d="M404.103 591.853C403.847 591.753 404.075 590.4 403.79 588.777C403.534 587.154 402.879 585.943 403.106 585.758C403.292 585.573 404.431 586.698 404.744 588.606C405.057 590.528 404.345 591.967 404.103 591.853Z" fill="#323A43"/>
<path d="M400.771 467.437C400.771 467.437 400.686 495.219 413.302 504.617C425.919 514.016 469.664 549.302 469.664 549.302L399.817 561.235L405.029 593.617C405.029 593.617 499.312 584.105 510.846 580.246C522.381 576.387 530.682 556.864 521.654 543.293C517.112 536.472 470.177 469.758 470.177 469.758L468.767 451.844L409.6 455.589L400.771 467.437Z" fill="#323A43"/>
<path d="M405.057 593.633C405.043 593.633 405 593.448 404.929 593.063C404.857 592.65 404.744 592.095 404.615 591.383C404.359 589.859 403.975 587.709 403.505 584.947C402.565 579.308 401.226 571.233 399.574 561.28L399.532 561.009L399.802 560.966C416.591 558.076 439.005 554.202 463.569 549.973C465.648 549.617 467.699 549.261 469.621 548.934L469.45 549.589C459.61 541.458 450.24 533.811 441.725 526.919C437.439 523.501 433.38 520.269 429.592 517.235C425.79 514.231 422.145 511.539 419.126 508.706C413.06 503.081 409.087 497.67 406.68 493.768C405.47 491.817 404.672 490.222 404.16 489.14C403.903 488.599 403.733 488.172 403.619 487.887C403.505 487.602 403.462 487.445 403.476 487.445C403.49 487.445 403.562 487.588 403.69 487.858C403.832 488.129 404.017 488.542 404.302 489.083C404.858 490.151 405.698 491.703 406.922 493.625C409.386 497.456 413.401 502.796 419.468 508.335C422.487 511.112 426.132 513.761 429.963 516.765C433.793 519.756 437.866 522.974 442.152 526.406C450.71 533.255 460.094 540.888 469.934 549.019L470.561 549.532L469.763 549.674C467.841 550.002 465.776 550.358 463.711 550.714C439.133 554.886 416.705 558.674 399.916 561.522L400.144 561.209C401.696 571.162 402.964 579.265 403.832 584.904C404.245 587.681 404.573 589.845 404.801 591.369C404.9 592.081 404.971 592.636 405.028 593.049C405.057 593.434 405.071 593.633 405.057 593.633Z" fill="#4A5568"/>
<path d="M488.518 551.326C488.446 551.54 484.374 550.344 479.176 549.803C473.993 549.233 469.749 549.561 469.735 549.333C469.721 549.233 470.775 549.034 472.512 548.92C474.235 548.806 476.641 548.792 479.262 549.076C481.896 549.361 484.231 549.874 485.897 550.344C487.563 550.814 488.546 551.227 488.518 551.326Z" fill="#4A5568"/>
<path d="M445.399 234.285C446.182 231.708 448.76 229.8 451.437 229.814C454.043 226.838 458.813 226.054 462.231 228.062C464.281 226.268 467.286 225.67 469.863 226.524C472.441 227.379 474.506 229.657 475.118 232.32C477.71 231.409 480.842 232.334 482.523 234.527C484.203 236.72 484.317 239.995 482.779 242.288C485.855 242.715 488.375 245.706 488.276 248.824C488.176 251.943 485.47 254.762 482.366 254.976L447.877 241.405C445.67 239.91 444.602 236.863 445.399 234.285Z" fill="#323A43"/>
<path d="M483.448 255.699C479.831 242.071 466.402 233.498 452.604 236.005L451.237 236.261C436.612 239.821 434.434 254.36 438.407 268.97L449.727 323.908L476.926 340.056L480.201 328.066L480.173 308.501C480.173 308.501 493.985 303.702 491.565 289.376C490.368 282.441 486.808 268.386 483.448 255.699Z" fill="#B9B5E3"/>
<path d="M480.258 308.445C480.258 308.445 471.287 310.638 460.636 306.352C460.636 306.352 466.204 316.633 480.145 312.774L480.258 308.445Z" fill="#8179CD"/>
<path d="M481.682 269.171C481.91 270.239 481.212 271.322 480.102 271.592C478.991 271.849 477.909 271.208 477.681 270.126C477.453 269.058 478.151 267.975 479.261 267.705C480.372 267.448 481.454 268.089 481.682 269.171Z" fill="#323A43"/>
<path d="M481.953 263.943C481.754 264.256 480.002 263.388 477.823 263.787C475.63 264.157 474.235 265.581 473.95 265.353C473.808 265.253 473.978 264.726 474.591 264.086C475.189 263.445 476.271 262.747 477.624 262.505C478.991 262.263 480.216 262.562 480.97 262.961C481.739 263.359 482.053 263.801 481.953 263.943Z" fill="#323A43"/>
<path d="M462.615 273.471C462.843 274.539 462.145 275.622 461.034 275.892C459.923 276.149 458.841 275.508 458.613 274.426C458.386 273.358 459.083 272.275 460.194 272.005C461.291 271.748 462.387 272.403 462.615 273.471Z" fill="#323A43"/>
<path d="M461.006 267.431C460.806 267.745 459.055 266.876 456.876 267.275C454.697 267.645 453.288 269.069 453.003 268.841C452.86 268.742 453.031 268.215 453.644 267.574C454.242 266.933 455.324 266.235 456.677 265.993C458.044 265.751 459.268 266.05 460.023 266.449C460.792 266.862 461.105 267.289 461.006 267.431Z" fill="#323A43"/>
<path d="M471.145 282.413C471.116 282.285 472.426 281.801 474.576 281.131C475.118 280.975 475.63 280.761 475.659 280.362C475.716 279.935 475.374 279.365 474.989 278.767C474.221 277.5 473.409 276.176 472.569 274.794C469.18 269.127 466.602 264.428 466.83 264.3C467.058 264.171 469.991 268.643 473.395 274.31C474.221 275.706 475.004 277.044 475.758 278.326C476.086 278.924 476.584 279.579 476.442 280.476C476.371 280.918 476.015 281.302 475.673 281.459C475.331 281.63 475.018 281.701 474.747 281.758C472.554 282.27 471.187 282.527 471.145 282.413Z" fill="#323A43"/>
<path d="M464.993 285.104C465.349 285.018 465.776 287.396 468.111 288.721C470.447 290.045 472.924 289.319 472.996 289.661C473.053 289.803 472.511 290.23 471.458 290.444C470.418 290.672 468.823 290.615 467.399 289.803C465.975 288.991 465.192 287.695 464.936 286.741C464.679 285.745 464.836 285.118 464.993 285.104Z" fill="#323A43"/>
<path d="M459.895 261.155C459.738 261.767 457.759 261.596 455.48 262.052C453.188 262.451 451.379 263.333 451.052 262.807C450.895 262.55 451.194 261.966 451.906 261.34C452.618 260.713 453.772 260.087 455.139 259.83C456.506 259.574 457.787 259.745 458.642 260.087C459.496 260.414 459.952 260.87 459.895 261.155Z" fill="#323A43"/>
<path d="M480.358 258.019C480.116 258.617 478.493 258.504 476.713 258.945C474.918 259.329 473.523 260.155 473.039 259.728C472.825 259.515 472.925 258.959 473.466 258.333C473.993 257.692 474.975 257.023 476.2 256.738C477.425 256.453 478.607 256.61 479.361 256.951C480.116 257.279 480.458 257.735 480.358 258.019Z" fill="#323A43"/>
<path d="M480.885 249.391C480.885 249.391 475.516 241.118 470.846 239.808C465.192 238.227 463.996 244.365 458.799 243.866C453.601 243.368 448.19 241.844 443.832 246.614C439.062 251.841 442.195 254.318 443.006 260.726C446.282 286.686 442.935 294.817 439.418 282.941C439.033 281.645 435.174 281.246 433.622 275.749C431.6 268.601 429.72 259.829 430.39 254.375C430.959 249.776 432.882 246.33 436.698 242.214C442.722 235.721 452.291 233.87 458.912 233.343C465.534 232.83 479.447 238.085 480.885 249.391Z" fill="#323A43"/>
<path d="M442.038 282.074C441.554 279.881 439.347 278.485 437.196 279.098C434.59 279.838 431.913 281.889 433.095 287.357C435.174 297.069 444.444 292.982 444.402 292.697C444.373 292.512 442.949 286.132 442.038 282.074Z" fill="#B9B5E3"/>
<path d="M441.511 289.492C441.469 289.464 441.369 289.649 441.113 289.834C440.856 290.019 440.401 290.218 439.859 290.133C438.763 289.976 437.553 288.538 437.125 286.786C436.912 285.904 436.912 285.021 437.083 284.266C437.225 283.497 437.581 282.899 438.065 282.7C438.549 282.472 438.977 282.7 439.162 282.956C439.347 283.198 439.333 283.412 439.39 283.412C439.418 283.426 439.56 283.198 439.404 282.814C439.318 282.628 439.162 282.429 438.891 282.287C438.621 282.144 438.25 282.13 437.909 282.244C437.168 282.458 436.655 283.283 436.47 284.124C436.257 284.978 436.228 285.975 436.47 286.957C436.955 288.908 438.336 290.517 439.831 290.631C440.543 290.66 441.07 290.332 441.312 290.047C441.54 289.734 441.554 289.506 441.511 289.492Z" fill="#8179CD"/>
<path d="M436.983 263.433C438.407 264.074 439.902 264.714 441.44 264.6C442.992 264.472 444.573 263.276 444.544 261.724C444.53 261.026 444.231 260.257 444.573 259.659C444.986 258.933 446.011 258.947 446.837 258.89C449.714 258.677 452.248 256.142 452.462 253.251C453.373 254.205 455.054 253.849 456.008 252.952C456.976 252.041 457.46 250.759 458.129 249.62C458.799 248.481 459.838 247.384 461.163 247.342C461.903 247.313 462.644 247.626 463.356 247.427C464.609 247.085 464.965 245.462 464.922 244.152C464.879 242.842 464.765 241.332 465.719 240.435C466.602 239.609 467.969 239.752 469.18 239.709C470.39 239.666 471.857 239.111 471.942 237.9C471.985 237.26 471.615 236.676 471.188 236.206C469.237 234.084 465.748 233.614 463.327 235.152C461.789 232.091 458.329 230.125 454.94 230.382C451.551 230.638 448.418 233.087 447.364 236.334C444.972 234.839 441.839 234.583 439.247 235.693C436.655 236.804 434.676 239.239 434.092 242.016C431.615 241.816 429.094 243.226 427.941 245.448C426.801 247.669 427.1 250.56 428.681 252.482C427.115 253.807 425.933 255.814 426.275 257.851C426.602 259.887 428.937 261.539 430.774 260.656C430.276 262.379 431.301 264.401 432.982 264.999C434.662 265.597 436.727 264.7 437.424 263.048" fill="#323A43"/>
<path d="M430.076 260.773C430.034 260.759 430.048 261.628 431.016 262.539C431.5 262.966 432.255 263.365 433.181 263.351C434.078 263.337 435.117 262.924 435.801 262.041L435.374 262.055C436 262.81 436.798 263.55 437.752 264.134C438.364 264.504 439.033 264.803 439.717 264.917C440.4 265.06 441.127 264.946 441.711 264.746C442.921 264.39 443.875 263.522 444.217 262.625C444.587 261.727 444.615 260.959 444.63 260.446C444.644 259.933 444.601 259.648 444.559 259.648C444.516 259.648 444.487 259.933 444.402 260.432C444.316 260.93 444.231 261.671 443.847 262.454C443.177 264.02 440.315 265.287 438.037 263.65C437.139 263.109 436.385 262.411 435.772 261.699L435.545 261.443L435.345 261.713C434.79 262.468 433.921 262.852 433.138 262.895C432.355 262.938 431.671 262.639 431.216 262.283C430.304 261.542 430.162 260.745 430.076 260.773Z" fill="#4A5568"/>
<path d="M444.388 235.125C444.388 235.153 444.658 235.153 445.114 235.253C445.57 235.367 446.267 235.623 446.851 236.264L447.008 236.435L447.108 236.236C447.791 234.84 449.03 232.989 451.109 231.551C452.148 230.839 453.387 230.255 454.783 230.013C456.164 229.756 457.688 229.899 459.112 230.454C460.223 230.881 461.205 231.551 461.988 232.348C462.757 233.16 463.313 234.114 463.597 235.096L463.683 235.396L463.968 235.267C465.349 234.598 466.887 234.612 468.097 235.025C469.322 235.438 470.191 236.25 470.732 237.005C471.828 238.585 471.771 239.824 471.857 239.796C471.885 239.796 471.914 239.511 471.828 238.97C471.743 238.443 471.529 237.66 470.988 236.82C470.447 235.994 469.536 235.082 468.225 234.598C466.93 234.114 465.264 234.057 463.726 234.783L464.096 234.954C463.811 233.872 463.213 232.832 462.387 231.949C461.547 231.081 460.493 230.369 459.311 229.913C457.788 229.315 456.15 229.173 454.683 229.472C453.202 229.756 451.892 230.383 450.824 231.138C448.674 232.676 447.464 234.641 446.823 236.093L447.079 236.051C446.396 235.367 445.627 235.153 445.142 235.082C444.644 235.025 444.388 235.096 444.388 235.125Z" fill="#4A5568"/>
<path d="M460.622 472.505C461.989 472.633 466.602 474.256 472.612 463.149C478.621 452.042 484.388 410.902 484.388 410.902L460.622 472.505Z" fill="#CBD5E0"/>
<path d="M486.553 394.954L487.236 355.153L479.233 324.68C479.233 324.68 473.623 315.922 467.528 311.465C460.266 306.168 454.271 304.971 454.271 304.971L445.114 302.75L444.132 310.354L470.732 340.885L486.553 394.954Z" fill="#CBD5E0"/>
<path d="M444.246 305.398C444.246 305.398 466.147 307.278 476.755 333.736C482.451 347.948 485.912 386.082 486.567 392.02C487.236 397.973 485.015 411.629 480.942 430.027C480.145 433.601 477.297 443.014 469.479 465.798C461.12 490.177 454.456 508.176 454.456 508.176L384.423 481.077L419.254 419.973C419.254 419.973 417.417 401.162 417.503 399.354C418.172 385.37 415.452 377.481 420.08 350.582C421.462 342.565 424.238 334.847 428.411 327.812C432.811 320.393 436.086 318.186 443.562 312.59L444.246 305.398Z" fill="#323A43"/>
<path d="M451.779 472.321L453.63 457.554L420.237 444.012L414.143 458.124L451.779 472.321Z" fill="#323A43"/>
<path d="M451.779 472.319C451.764 472.305 451.508 472.191 451.024 471.992C450.469 471.778 449.771 471.493 448.888 471.137C446.966 470.383 444.317 469.343 441.013 468.061C434.292 465.47 424.979 461.896 414.271 457.78L414.484 458.264C416.122 454.477 417.859 450.461 419.667 446.303C419.981 445.577 420.294 444.85 420.593 444.153L420.095 444.352C433.224 449.621 445 454.363 453.53 457.78L453.374 457.51C452.875 462.009 452.476 465.655 452.177 468.275C452.049 469.514 451.95 470.497 451.864 471.251C451.793 471.935 451.764 472.305 451.779 472.319C451.793 472.348 451.85 472.006 451.95 471.365C452.064 470.639 452.192 469.671 452.377 468.474C452.747 465.826 453.26 462.138 453.886 457.581L453.915 457.381L453.73 457.31C445.214 453.821 433.48 449.023 420.379 443.654L420.038 443.512L419.895 443.853C419.596 444.551 419.283 445.277 418.97 446.004C417.175 450.162 415.438 454.192 413.815 457.965L413.658 458.321L414.014 458.449C424.879 462.465 434.32 465.968 441.156 468.503C444.445 469.699 447.094 470.667 449.002 471.351C449.856 471.65 450.54 471.892 451.081 472.091C451.551 472.262 451.793 472.348 451.779 472.319Z" fill="#4A5568"/>
<path d="M479.461 434.982C479.475 434.982 479.447 435.11 479.376 435.366C479.29 435.651 479.176 436.021 479.034 436.477C478.706 437.502 478.251 438.912 477.667 440.706C476.428 444.423 474.662 449.706 472.498 456.199C468.055 469.314 461.932 487.328 455.182 507.235C455.054 507.606 454.926 507.976 454.812 508.318L454.683 508.688L454.327 508.545C434.975 501.012 417.503 494.206 404.801 489.264C398.535 486.787 393.437 484.779 389.863 483.355C388.14 482.657 386.801 482.116 385.819 481.717C385.392 481.532 385.05 481.39 384.779 481.276C384.552 481.176 384.423 481.119 384.438 481.105C384.438 481.091 384.566 481.133 384.808 481.205C385.093 481.304 385.434 481.432 385.876 481.575C386.858 481.945 388.225 482.443 389.963 483.084C393.565 484.451 398.678 486.388 404.986 488.766C417.702 493.65 435.203 500.386 454.584 507.833L454.1 508.061C454.214 507.719 454.342 507.349 454.47 506.979C461.305 487.1 467.485 469.101 471.985 456.014C474.249 449.549 476.086 444.294 477.382 440.592C478.023 438.812 478.521 437.417 478.877 436.406C479.048 435.964 479.176 435.608 479.29 435.323C479.39 435.095 479.447 434.967 479.461 434.982Z" fill="#4A5568"/>
<path d="M376.52 513.02C376.52 513.02 384.808 486.049 391.842 484.226C398.877 482.404 408.204 482.105 409.856 486.69C411.508 491.275 412.846 497.982 412.561 504.76C412.277 511.539 409.785 521.492 409.785 521.492L402.593 519.271C402.593 519.271 408.218 491.887 406.766 487.402C405.313 482.916 393.366 484.013 391.187 488.655C389.008 493.311 382.088 514.728 382.088 514.728L376.52 513.02Z" fill="#4A5568"/>
<path d="M343.469 546.939C345.989 535.647 351.885 510.812 354.476 499.89C355.188 496.914 358.122 495.034 361.127 495.618L428.61 508.975C431.615 509.573 433.622 512.45 433.124 515.483L425.506 562.389C424.993 565.551 421.974 567.658 418.827 567.074L347.983 553.788C344.822 553.19 342.771 550.086 343.469 546.939Z" fill="#4A5568"/>
<path d="M426.189 526.263C426.189 526.263 426.175 526.434 426.104 526.761C426.033 527.117 425.947 527.615 425.819 528.271C425.563 529.623 425.178 531.574 424.68 534.095C423.669 539.193 422.216 546.555 420.422 555.626C420.308 556.195 420.194 556.765 420.08 557.349C419.995 557.932 419.767 558.573 419.34 559.057C418.927 559.542 418.343 559.912 417.702 560.068C417.061 560.254 416.364 560.111 415.766 559.983C413.288 559.499 410.71 559 408.047 558.488C402.707 557.448 397.011 556.352 391.016 555.184C385.021 554.016 378.713 552.792 372.191 551.524C368.93 550.884 365.612 550.243 362.237 549.588C360.557 549.26 358.848 548.933 357.139 548.591L355.858 548.335C355.445 548.249 354.989 548.207 354.534 547.993C353.665 547.608 352.981 546.811 352.754 545.871C352.654 545.472 352.625 545.059 352.682 544.647C352.754 544.234 352.839 543.892 352.91 543.522C353.067 542.781 353.223 542.055 353.38 541.314C353.693 539.848 354.007 538.395 354.32 536.943C354.947 534.052 355.545 531.19 356.157 528.384C357.367 522.76 358.521 517.334 359.646 512.137L359.703 511.895L359.945 511.952C379.126 516.85 395.716 520.367 407.492 522.688C413.373 523.842 418.058 524.711 421.276 525.309C422.871 525.608 424.11 525.835 424.965 525.992C425.363 526.063 425.677 526.135 425.904 526.177C426.09 526.234 426.189 526.263 426.189 526.263C426.189 526.263 426.075 526.248 425.847 526.22C425.605 526.177 425.292 526.135 424.893 526.078C424.039 525.935 422.814 525.736 421.219 525.494C418.001 524.953 413.302 524.127 407.407 523.016C395.616 520.78 378.998 517.334 359.802 512.464L360.101 512.279C358.991 517.477 357.837 522.916 356.641 528.527C356.043 531.332 355.431 534.194 354.818 537.085C354.505 538.538 354.192 539.99 353.879 541.457C353.722 542.183 353.565 542.923 353.409 543.664C353.252 544.419 353.038 545.102 353.238 545.786C353.423 546.569 354.007 547.238 354.733 547.566C355.089 547.737 355.502 547.779 355.943 547.879L357.225 548.135C358.934 548.463 360.628 548.805 362.323 549.132C365.698 549.787 369.016 550.442 372.277 551.083C378.799 552.365 385.093 553.589 391.102 554.771C397.097 555.953 402.793 557.064 408.133 558.118C410.796 558.644 413.373 559.143 415.851 559.641C416.478 559.784 417.047 559.898 417.617 559.741C418.186 559.613 418.685 559.285 419.055 558.858C419.439 558.417 419.625 557.904 419.724 557.32C419.838 556.736 419.966 556.167 420.08 555.611C421.946 546.597 423.469 539.292 424.523 534.223C425.05 531.702 425.463 529.737 425.748 528.37C425.89 527.715 426.004 527.203 426.075 526.847C426.132 526.448 426.189 526.263 426.189 526.263Z" fill="#323A43"/>
<path d="M401.027 552.505C401.027 552.476 401.44 552.576 402.238 552.576C403.021 552.548 404.231 552.362 405.47 551.522C406.723 550.696 407.834 549.087 408.062 546.923C408.475 544.801 408.945 542.395 409.471 539.732C409.728 538.393 410.013 536.998 410.297 535.545C410.668 534.121 410.611 532.569 409.884 531.188C409.187 529.806 407.862 528.696 406.282 528.283C404.644 527.927 402.907 527.599 401.155 527.243C394.107 525.833 386.374 524.281 378.243 522.658C376.292 522.259 374.199 522.957 372.917 524.424C372.262 525.136 371.821 526.019 371.593 526.944C371.394 527.912 371.194 528.881 370.995 529.835C370.611 531.757 370.226 533.637 369.856 535.474C369.671 536.399 369.486 537.311 369.3 538.208C369.13 539.105 368.888 540.016 368.831 540.857C368.731 542.58 369.471 544.274 370.696 545.371C371.294 545.926 372.02 546.339 372.775 546.581C373.53 546.809 374.356 546.923 375.125 547.108C378.257 547.749 381.162 548.347 383.825 548.888C389.123 549.984 393.409 550.882 396.428 551.508C397.88 551.821 399.034 552.063 399.845 552.249C400.216 552.334 400.5 552.405 400.728 552.448C400.928 552.476 401.027 552.505 401.027 552.505C401.027 552.519 400.928 552.505 400.714 552.476C400.486 552.434 400.187 552.391 399.817 552.32C398.991 552.163 397.852 551.95 396.385 551.679C393.366 551.095 389.066 550.255 383.754 549.215C381.091 548.689 378.172 548.119 375.039 547.492C374.256 547.322 373.473 547.222 372.633 546.98C371.821 546.723 371.038 546.282 370.397 545.684C369.073 544.516 368.261 542.694 368.375 540.814C368.432 539.86 368.674 539.005 368.845 538.094C369.03 537.197 369.201 536.286 369.386 535.36C369.756 533.523 370.126 531.629 370.511 529.721C370.71 528.767 370.91 527.799 371.109 526.816C371.351 525.805 371.821 524.837 372.547 524.068C373.943 522.473 376.235 521.718 378.357 522.145C386.474 523.783 394.22 525.349 401.255 526.773C403.021 527.143 404.715 527.457 406.41 527.841C408.119 528.297 409.543 529.507 410.283 530.988C411.052 532.455 411.095 534.192 410.696 535.616C410.397 537.069 410.112 538.464 409.842 539.789C409.286 542.437 408.802 544.844 408.361 546.966C408.247 547.492 408.147 548.005 408.005 548.503C407.834 548.988 407.635 549.443 407.378 549.842C406.88 550.639 406.239 551.252 405.598 551.679C404.288 552.533 403.049 552.676 402.252 552.676C401.44 552.647 401.027 552.505 401.027 552.505Z" fill="#323A43"/>
<g opacity="0.3">
<path d="M354.277 547.734C373.116 557.645 394.918 561.889 416.107 559.739L354.277 547.734Z" fill="#323A43"/>
</g>
<g opacity="0.8" clip-path="url(#clip0_3321_54714)">
<path d="M389.328 527.923C387.835 527.692 385.123 527.396 384.01 527.347C383.354 527.316 383.141 527.339 382.975 527.446L382.769 527.575L381.782 532.499L380.797 537.417L380.874 537.989C381.181 540.396 382.45 542.815 384.697 545.27C385.656 546.32 387.139 547.654 387.663 547.947C387.916 548.081 389.53 547.617 391.084 546.956C394.451 545.523 396.774 543.706 398.053 541.505L398.342 541.008L399.368 536.099L400.403 531.184L400.264 530.985C400.115 530.762 399.864 530.651 398.68 530.246C395.994 529.332 391.952 528.327 389.328 527.923ZM394.199 530.33C394.917 530.514 396.181 530.884 397.02 531.145C398.475 531.598 398.548 531.628 398.711 531.854L398.879 532.089L398.15 535.753C397.344 539.832 397.179 540.428 396.678 541.224C395.616 542.928 393.336 544.568 390.326 545.806C389.452 546.169 388.245 546.545 388.079 546.511C387.906 546.476 386.914 545.627 386.217 544.914C383.463 542.087 382.031 539.301 382.201 537.066C382.233 536.664 382.518 535.165 383.029 532.74L383.809 529.034L384.013 528.883C384.258 528.703 384.265 528.705 386.001 528.875C388.572 529.119 391.67 529.671 394.199 530.33Z" fill="white"/>
<path d="M387.666 531.294C385.866 531.118 385.738 531.114 385.492 531.257L385.272 531.382L384.67 534.219C383.992 537.426 383.952 537.796 384.205 538.775C384.405 539.558 384.582 539.958 385.074 540.756C385.543 541.527 386.043 542.179 386.664 542.84C387.161 543.364 387.425 543.448 387.793 543.197L388.035 543.031L388.57 540.418C389.115 537.755 389.131 537.61 388.916 537.358C388.859 537.287 388.546 537.194 388.057 537.086C387.173 536.905 387.205 536.889 387.063 537.58C386.964 538.064 387.007 538.207 387.291 538.264C387.394 538.286 387.503 538.352 387.533 538.418C387.61 538.567 387.072 541.054 386.961 541.068C386.828 541.085 386.05 539.895 385.775 539.267C385.633 538.942 385.473 538.456 385.415 538.177L385.323 537.676L385.828 535.176C386.259 533.068 386.356 532.665 386.462 532.605C386.583 532.541 387.104 532.566 388.158 532.692L388.769 532.766L388.584 533.67C388.483 534.161 388.422 534.638 388.44 534.724C388.479 534.85 388.564 534.89 388.986 534.976C389.29 535.039 389.532 535.051 389.591 535.011C389.666 534.96 389.776 534.53 389.981 533.526L390.271 532.109L390.113 531.861C389.959 531.629 389.92 531.607 389.408 531.509C389.109 531.455 388.33 531.355 387.666 531.294Z" fill="white"/>
<path d="M391.965 532.241L391.723 532.406L390.614 537.825C389.832 541.642 389.516 543.291 389.547 543.423C389.594 543.648 389.81 543.826 390.086 543.882C390.522 543.971 392.868 542.708 393.802 541.875C393.995 541.707 394.354 541.321 394.596 541.022C395.283 540.161 395.376 539.883 396.032 536.679C396.632 533.745 396.643 533.621 396.349 533.368C396.203 533.242 393.341 532.307 392.685 532.173C392.256 532.085 392.19 532.094 391.965 532.241ZM394.464 534.103C394.74 534.196 394.996 534.315 395.043 534.369C395.099 534.448 395.016 534.957 394.615 536.916C394.047 539.693 394.03 539.741 393.287 540.524C392.855 540.977 391.375 542.017 391.26 541.949C391.169 541.9 392.719 533.871 392.843 533.719C392.929 533.618 393.349 533.711 394.464 534.103Z" fill="white"/>
</g>
<path d="M409.315 478.172C409.315 478.172 411.365 481.333 411.849 483.256C412.333 485.178 412.02 492.896 412.02 492.896C412.02 492.896 410.354 493.736 409.001 489.251C407.648 484.765 407.478 482.657 407.478 482.657L409.315 478.172Z" fill="#B9B5E3"/>
<path d="M409.101 492.484L409.429 478.372L403.989 467.949L386.73 467.621L386.118 484.723C386.118 484.723 388.652 492.057 389.863 493.452C391.073 494.834 393.494 493.808 393.494 493.808C394.804 495.845 398.378 495.104 398.378 495.104C400.144 497.198 402.864 495.232 402.864 495.232C402.864 495.232 405.256 497.425 406.367 497.283C406.751 497.24 407.15 496.941 407.52 496.543C408.517 495.432 409.058 493.979 409.101 492.484Z" fill="#B9B5E3"/>
<path d="M392.155 490.12C392.326 490.063 392.725 490.818 393.053 491.801C393.394 492.783 393.522 493.637 393.366 493.68C393.209 493.737 392.796 492.982 392.469 492C392.127 491.017 391.985 490.177 392.155 490.12Z" fill="#8179CD"/>
<path d="M396.627 489.907C396.798 489.878 397.097 491.089 397.524 492.527C397.951 493.979 398.35 495.133 398.193 495.218C398.037 495.289 397.367 494.207 396.926 492.712C396.484 491.217 396.47 489.935 396.627 489.907Z" fill="#8179CD"/>
<path d="M401.725 490.363C401.896 490.363 402.038 491.431 402.28 492.741C402.522 494.037 402.778 495.091 402.608 495.162C402.451 495.219 401.91 494.222 401.668 492.855C401.411 491.488 401.554 490.363 401.725 490.363Z" fill="#8179CD"/>
<path d="M409.215 482.801C409.386 482.801 409.5 485.207 409.457 488.169C409.414 491.131 409.243 493.524 409.072 493.524C408.901 493.524 408.788 491.117 408.83 488.155C408.873 485.193 409.044 482.787 409.215 482.801Z" fill="#8179CD"/>
<path d="M391.899 487.287C391.956 487.358 391.842 487.558 391.529 487.743C391.23 487.928 390.717 488.07 390.162 487.956C389.607 487.842 389.194 487.501 388.994 487.216C388.795 486.917 388.766 486.689 388.838 486.66C388.98 486.575 389.464 487.187 390.29 487.358C391.116 487.515 391.8 487.145 391.899 487.287Z" fill="#8179CD"/>
<path d="M397.111 488.142C397.154 488.214 397.011 488.413 396.655 488.57C396.314 488.741 395.773 488.84 395.189 488.726C394.605 488.612 394.149 488.299 393.893 488.014C393.637 487.73 393.58 487.487 393.651 487.445C393.793 487.345 394.377 487.943 395.317 488.114C396.257 488.313 397.026 487.986 397.111 488.142Z" fill="#8179CD"/>
<path d="M407.093 487.101C407.15 487.03 407.492 487.486 407.093 488.084C406.694 488.625 405.911 489.009 404.986 489.095C404.06 489.18 403.234 488.895 402.736 488.582C402.237 488.255 402.038 487.927 402.095 487.884C402.195 487.742 403.32 488.639 404.929 488.482C405.698 488.411 406.424 488.112 406.751 487.813C407.093 487.471 407.008 487.115 407.093 487.101Z" fill="#8179CD"/>
<path d="M460.821 354.369C454.043 361.433 411.949 402.757 411.949 402.757C411.949 402.757 409.5 469.528 408.289 469.827C407.065 470.126 382.871 468.133 382.871 468.133C382.871 468.133 379.482 397.346 382.301 389.272C385.121 381.198 421.134 333.992 421.903 333.009C422.686 332.027 426.816 324.807 440.586 321.261C456.72 317.118 463.484 324.85 466.204 332.796C468.539 339.631 464.082 350.254 461.917 353.116C461.576 353.529 461.219 353.957 460.821 354.369Z" fill="#323A43"/>
<path d="M460.821 354.371C460.821 354.371 461.02 354.101 461.433 353.588C461.875 353.104 462.416 352.278 463.014 351.139C464.153 348.86 465.691 345.315 466.446 340.501C466.787 338.109 466.916 335.332 465.933 332.541C464.936 329.779 463.384 326.86 460.849 324.538C459.596 323.371 458.058 322.431 456.392 321.705C454.712 320.964 452.832 320.622 450.91 320.409C447.008 320.124 442.878 320.822 438.72 322.046C434.577 323.3 430.347 325.208 426.688 328.198C424.836 329.693 423.284 331.488 421.86 333.552C420.365 335.532 418.841 337.54 417.289 339.59C411.123 347.807 404.559 356.621 397.837 366.005C394.477 370.705 391.059 375.532 387.741 380.587C386.104 383.122 384.395 385.685 383.099 388.405C382.957 388.747 382.757 389.088 382.643 389.43L382.415 390.527C382.23 391.253 382.159 392.022 382.102 392.791L381.889 395.112L381.789 397.462C381.333 410.007 381.703 423.037 382.059 436.365C382.373 447.188 382.786 457.796 383.256 468.092L382.914 467.75C387.3 468.092 391.629 468.434 395.915 468.775C398.051 468.932 400.173 469.074 402.294 469.217C403.348 469.274 404.402 469.345 405.441 469.402L407.008 469.473L407.777 469.487L408.104 469.473C408.119 469.502 408.332 469.416 408.076 469.53C408.005 469.63 408.076 469.487 408.076 469.487C408.46 467.551 408.56 465.415 408.745 463.393C408.888 461.342 409.016 459.32 409.158 457.298C409.386 453.268 409.6 449.309 409.813 445.422C410.596 429.872 411.18 415.518 411.679 402.716V402.602L411.764 402.517C426.816 387.693 439.062 375.632 447.549 367.258C451.793 363.1 455.096 359.868 457.361 357.661C458.471 356.578 459.34 355.753 459.938 355.169C460.508 354.642 460.821 354.371 460.821 354.371C460.821 354.371 460.55 354.685 459.981 355.254C459.397 355.852 458.557 356.692 457.474 357.803C455.239 360.039 451.964 363.314 447.777 367.515C439.318 375.931 427.129 388.049 412.149 402.958L412.234 402.773C411.778 415.561 411.223 429.929 410.468 445.479C410.255 449.366 410.055 453.325 409.827 457.369C409.699 459.391 409.557 461.413 409.429 463.464C409.244 465.529 409.172 467.551 408.745 469.701C408.688 469.815 408.731 469.815 408.589 470.014C408.475 470.142 408.318 470.185 408.318 470.171L408.204 470.185L407.748 470.214L406.951 470.199L405.37 470.128C404.317 470.071 403.263 470 402.209 469.943C400.102 469.801 397.965 469.644 395.829 469.502C391.543 469.174 387.214 468.832 382.828 468.491L382.501 468.462L382.487 468.135C382.017 457.839 381.589 447.23 381.276 436.408C380.92 423.079 380.564 410.05 381.02 397.462L381.134 395.112L381.347 392.762C381.404 391.979 381.49 391.196 381.689 390.413L381.931 389.245C382.059 388.875 382.245 388.519 382.401 388.163C383.768 385.329 385.463 382.78 387.115 380.231C390.447 375.176 393.879 370.334 397.253 365.635C404.003 356.251 410.568 347.451 416.762 339.248C418.314 337.198 419.852 335.19 421.348 333.211C422.088 332.257 422.786 331.189 423.626 330.291C424.452 329.366 425.349 328.554 426.275 327.771C430.034 324.724 434.334 322.815 438.521 321.548C442.722 320.309 446.923 319.626 450.91 319.939C452.875 320.181 454.812 320.523 456.535 321.306C458.258 322.061 459.824 323.029 461.106 324.239C463.697 326.646 465.264 329.622 466.246 332.427C467.229 335.304 467.072 338.138 466.716 340.544C465.905 345.4 464.324 348.932 463.142 351.21C462.53 352.349 461.96 353.161 461.49 353.631C461.063 354.129 460.821 354.371 460.821 354.371Z" fill="#4A5568"/>
<path d="M484.701 384.931C484.673 384.931 484.573 384.66 484.417 384.133C484.231 383.535 484.004 382.766 483.719 381.812C483.121 379.69 482.281 376.771 481.255 373.183C479.205 365.764 476.399 355.596 473.252 344.162L473.21 344.005L473.295 343.863C474.093 342.638 474.918 341.328 475.773 340.018L476.414 339.021L476.684 339.591C475.075 339.434 473.48 339.292 471.971 339.149L471.729 339.121L471.658 338.879C470.775 336.145 469.806 333.51 468.724 331.047C467.656 328.583 466.488 326.262 465.064 324.311C463.655 322.374 461.576 321.207 459.739 320.096C457.859 319.028 456.051 318.131 454.399 317.348C451.081 315.796 448.347 314.656 446.467 313.873C445.584 313.503 444.872 313.204 444.303 312.976C443.804 312.762 443.562 312.649 443.562 312.634C443.576 312.606 443.847 312.691 444.345 312.848C444.858 313.019 445.598 313.275 446.552 313.631C448.461 314.343 451.223 315.411 454.584 316.906C456.264 317.675 458.087 318.544 460.009 319.598C461.875 320.694 464.025 321.848 465.577 323.912C467.087 325.935 468.268 328.284 469.365 330.762C470.461 333.254 471.458 335.888 472.355 338.665L472.042 338.409C473.566 338.551 475.146 338.694 476.755 338.85L477.368 338.907L477.04 339.42L476.399 340.417C475.545 341.741 474.705 343.037 473.922 344.261L473.964 343.962C477.026 355.411 479.746 365.607 481.739 373.04C482.679 376.657 483.434 379.605 483.989 381.741C484.217 382.709 484.417 383.493 484.559 384.105C484.673 384.646 484.73 384.931 484.701 384.931Z" fill="#4A5568"/>
<path d="M479.788 342.377C471.529 347.247 464.822 347.219 451.038 346.051C441.483 345.24 433.11 342.506 423.526 342.207C409.713 341.779 399.361 345.994 386.773 351.705L377.502 362.669L394.918 367.938C394.918 367.938 411.621 358.44 433.053 359.608C454.47 360.775 474.463 354.951 481.554 349.54L483.989 342.776L483.064 339.259L480.13 338.988L479.788 342.377Z" fill="#F35B04"/>
<path d="M479.789 342.378C479.789 342.378 479.789 342.065 479.831 341.495C479.874 340.897 479.945 340.057 480.031 338.96V338.875L480.116 338.889C480.942 338.96 481.925 339.032 483.05 339.131H483.135L483.163 339.217C483.448 340.242 483.762 341.424 484.118 342.734L484.132 342.777L484.118 342.819C483.42 344.799 482.622 347.063 481.725 349.598L481.711 349.655L481.668 349.683C479.789 351.136 477.467 352.318 474.919 353.4C472.355 354.482 469.55 355.479 466.488 356.319C460.394 358.028 453.402 359.295 445.727 359.822C441.896 360.05 437.894 360.178 433.765 359.964C429.664 359.794 425.435 359.836 421.106 360.363C416.791 360.862 412.391 361.773 408.019 363.083C403.662 364.393 399.247 366.045 395.089 368.266L394.947 368.338L394.804 368.295C391.558 367.312 388.097 366.273 384.608 365.219C382.188 364.479 379.767 363.752 377.389 363.04L376.848 362.884L377.218 362.456C380.379 358.726 383.469 355.066 386.502 351.492L386.559 351.435L386.631 351.406C392.839 348.601 398.934 345.952 405.086 344.229C411.223 342.478 417.36 341.737 423.156 341.922C428.966 342.065 434.349 343.133 439.333 344.058C444.317 345.027 448.945 345.739 453.217 346.023C457.474 346.365 461.319 346.622 464.68 346.508C468.041 346.422 470.889 345.938 473.139 345.255C475.388 344.585 477.026 343.788 478.137 343.261C478.649 342.99 479.062 342.777 479.361 342.62C479.632 342.449 479.774 342.378 479.789 342.378C479.803 342.378 479.66 342.463 479.404 342.634C479.134 342.791 478.735 343.047 478.179 343.346C477.083 343.916 475.46 344.756 473.195 345.468C470.946 346.194 468.055 346.721 464.68 346.835C461.291 346.978 457.432 346.764 453.174 346.451C448.902 346.194 444.217 345.497 439.233 344.571C434.249 343.674 428.881 342.634 423.142 342.52C417.403 342.364 411.351 343.119 405.285 344.856C399.204 346.579 393.138 349.213 386.944 352.033L387.072 351.933C384.053 355.507 380.963 359.167 377.802 362.912L377.631 362.314C380.009 363.04 382.43 363.767 384.851 364.493C388.339 365.547 391.8 366.6 395.046 367.583L394.762 367.611C399.019 365.333 403.434 363.695 407.848 362.371C412.263 361.061 416.691 360.15 421.049 359.651C425.406 359.139 429.707 359.11 433.822 359.281C437.923 359.509 441.896 359.395 445.712 359.181C453.331 358.683 460.308 357.458 466.375 355.806C469.422 354.995 472.213 354.012 474.762 352.973C477.297 351.905 479.603 350.765 481.455 349.37L481.383 349.455C482.309 346.935 483.135 344.671 483.861 342.706V342.791C483.534 341.481 483.235 340.299 482.964 339.259L483.064 339.345C481.939 339.231 480.956 339.131 480.13 339.046L480.23 338.96C480.102 340.057 480.002 340.897 479.931 341.509C479.846 342.107 479.789 342.378 479.789 342.378Z" fill="#323A43"/>
<path d="M447.165 431.253C447.093 431.453 440.799 429.374 433.11 426.611C425.42 423.863 419.24 421.47 419.311 421.271C419.382 421.072 425.662 423.151 433.366 425.913C441.056 428.662 447.236 431.054 447.165 431.253Z" fill="#4A5568"/>
<defs>
<clipPath id="clip0_3321_54714">
<rect width="24" height="24" fill="white" transform="translate(380.435 524.016) rotate(11.568)"/>
</clipPath>
</defs>
</svg>
