<svg width="14" height="12" viewBox="0 0 14 12" fill="none" xmlns="http://www.w3.org/2000/svg">
<path d="M0.930591 7.61432H13.0586M0.930591 9.05227H13.0586M0.930591 10.5174H13.0586M13.4114 5.93209C13.4657 6.06775 13.3843 6.17628 13.2486 6.17628H0.767872C0.605079 6.17628 0.55082 6.06775 0.577952 5.93209L2.12448 1.72661C2.17874 1.59095 2.34154 1.48242 2.4772 1.48242H11.3494C11.4851 1.48242 11.675 1.59095 11.7292 1.72661L13.4114 5.93209ZM8.55486 3.68025C8.66338 4.43995 7.95795 5.09112 6.9812 5.09112C6.00444 5.09112 5.29901 4.41281 5.35327 3.68025C5.43467 3.00195 6.1401 2.51357 6.92693 2.51357C7.74089 2.51357 8.47346 3.02908 8.55486 3.68025ZM3.91852 3.78497C3.95803 4.0615 3.70125 4.29853 3.34571 4.29853C2.99017 4.29853 2.73339 4.05163 2.75314 3.78497C2.78277 3.53807 3.03955 3.3603 3.32596 3.3603C3.62224 3.3603 3.88889 3.54795 3.91852 3.78497ZM11.1601 3.78497C11.1996 4.0615 10.9428 4.29853 10.5873 4.29853C10.2317 4.29853 9.97495 4.05163 9.9947 3.78497C10.0243 3.53807 10.2811 3.3603 10.5675 3.3603C10.8638 3.3603 11.1305 3.54795 11.1601 3.78497Z" stroke="#323A43" stroke-miterlimit="10" stroke-linecap="round" stroke-linejoin="round"/>
</svg>
